:version 1.10
:name ASF
:units
  mass 1
  length 1
  angle deg
:documentation
  ASF file generated by Kaydara
:root
  axis xyz
  order  tx ty tz rx ry rz
  position 0 0 0
  orientation 0 0 0
:bonedata
  begin
    id 1
    name lfemurDummy
    direction 0.61522 -0.761478 0.204097
    length 5.68318
    axis 0 -0 0 xyz
  end
  begin
    id 2
    name lfemur
    direction 0.34202 -0.939693 -5.84747e-008
    length 16.9147
    axis 0 -0 20 xyz
    dof rx ry rz
    limits( -inf , inf )
( -inf , inf )
( -inf , inf )

  end
  begin
    id 3
    name ltibia
    direction 0.34202 -0.939693 1.20839e-009
    length 18.0532
    axis 0 -0 20 xyz
    dof rz ry rx
    limits( -inf , inf )
( -inf , inf )
( -inf , inf )

  end
  begin
    id 4
    name lfoot
    direction 0.0841971 -0.23133 0.969225
    length 5.23822
    axis -90 7.62852e-016 20 xyz
    dof ry rx rz
    limits( -inf , inf )
( -inf , inf )
( -inf , inf )

  end
  begin
    id 5
    name ltoes
    direction 0 0 0
    length 0
    axis 0 0 0 xyz
    dof rz ry rx
    limits( -inf , inf )
( -inf , inf )
( -inf , inf )

  end
  begin
    id 6
    name rfemurDummy
    direction -0.625247 -0.75382 0.202044
    length 5.74091
    axis 0 -0 0 xyz
  end
  begin
    id 7
    name rfemur
    direction -0.34202 -0.939693 -1.47013e-008
    length 16.4922
    axis 0 -0 -20 xyz
    dof rx ry rz
    limits( -inf , inf )
( -inf , inf )
( -inf , inf )

  end
  begin
    id 8
    name rtibia
    direction -0.34202 -0.939693 -7.74345e-010
    length 18.2421
    axis 0 -0 -20 xyz
    dof rz ry rx
    limits( -inf , inf )
( -inf , inf )
( -inf , inf )

  end
  begin
    id 9
    name rfoot
    direction -0.124331 -0.341598 0.931586
    length 5.45787
    axis -90 -7.62852e-016 -20 xyz
    dof ry rx rz
    limits( -inf , inf )
( -inf , inf )
( -inf , inf )

  end
  begin
    id 10
    name rtoes
    direction 0 0 0
    length 0
    axis 0 0 0 xyz
    dof rz ry rx
    limits( -inf , inf )
( -inf , inf )
( -inf , inf )

  end
  begin
    id 11
    name lowerbackDummy
    direction 0 0 0
    length 0
    axis 0 -0 0 xyz
  end
  begin
    id 12
    name lowerback
    direction -0.0218484 0.994884 -0.0986304
    length 4.45607
    axis 0 -0 0 xyz
    dof rx ry rz
    limits( -inf , inf )
( -inf , inf )
( -inf , inf )

  end
  begin
    id 13
    name upperback
    direction -0.00973057 0.999717 -0.0217111
    length 4.47449
    axis 0 -0 0 xyz
    dof rx ry rz
    limits( -inf , inf )
( -inf , inf )
( -inf , inf )

  end
  begin
    id 14
    name thorax
    direction -0.000928171 0.999699 0.0245198
    length 4.50973
    axis 0 -0 0 xyz
    dof rx ry rz
    limits( -inf , inf )
( -inf , inf )
( -inf , inf )

  end
  begin
    id 15
    name rclavicle
    direction -0.9009 0.425937 -0.0834055
    length 7.28587
    axis 0 -0 0 xyz
    dof rx ry rz
    limits( -inf , inf )
( -inf , inf )
( -inf , inf )

  end
  begin
    id 16
    name rhumerus
    direction -1 -2.23604e-007 -1.42637e-007
    length 13.5704
    axis 180 30 90 xyz
    dof rx ry rz
    limits( -inf , inf )
( -inf , inf )
( -inf , inf )

  end
  begin
    id 17
    name rradius
    direction -1 5.68281e-008 -4.4952e-007
    length 8.06782
    axis 180 30 90 xyz
    dof rz ry rx
    limits( -inf , inf )
( -inf , inf )
( -inf , inf )

  end
  begin
    id 18
    name rwrist
    direction -1 1.51393e-007 1.38143e-007
    length 4.03391
    axis -90 -90 0 xyz
    dof rz rx ry
    limits( -inf , inf )
( -inf , inf )
( -inf , inf )

  end
  begin
    id 19
    name rthumb
    direction 0 0 0
    length 0
    axis 0 0 0 xyz
    dof ry rx rz
    limits( -inf , inf )
( -inf , inf )
( -inf , inf )

  end
  begin
    id 20
    name rhand
    direction -1 -3.34077e-007 -5.59631e-007
    length 1.29744
    axis -90 -90 0 xyz
    dof ry rx rz
    limits( -inf , inf )
( -inf , inf )
( -inf , inf )

  end
  begin
    id 21
    name rfingers
    direction 0 0 0
    length 0
    axis 0 0 0 xyz
    dof rz ry rx
    limits( -inf , inf )
( -inf , inf )
( -inf , inf )

  end
  begin
    id 22
    name lclavicle
    direction 0.940017 0.332249 -0.0773232
    length 8.29589
    axis 0 -0 0 xyz
    dof rx ry rz
    limits( -inf , inf )
( -inf , inf )
( -inf , inf )

  end
  begin
    id 23
    name lhumerus
    direction 1 7.41158e-008 -1.44768e-008
    length 12.0042
    axis 180 -30 -90 xyz
    dof rx ry rz
    limits( -inf , inf )
( -inf , inf )
( -inf , inf )

  end
  begin
    id 24
    name lradius
    direction 1 -1.32972e-007 3.10821e-007
    length 8.1902
    axis 180 -30 -90 xyz
    dof rz ry rx
    limits( -inf , inf )
( -inf , inf )
( -inf , inf )

  end
  begin
    id 25
    name lwrist
    direction 1 3.08957e-007 4.01394e-007
    length 4.09509
    axis -90 90 0 xyz
    dof rz rx ry
    limits( -inf , inf )
( -inf , inf )
( -inf , inf )

  end
  begin
    id 26
    name lthumb
    direction 0 0 0
    length 0
    axis 0 0 0 xyz
    dof ry rx rz
    limits( -inf , inf )
( -inf , inf )
( -inf , inf )

  end
  begin
    id 27
    name lhand
    direction 1 -1.64125e-007 -6.99514e-007
    length 1.37229
    axis -90 90 0 xyz
    dof ry rx rz
    limits( -inf , inf )
( -inf , inf )
( -inf , inf )

  end
  begin
    id 28
    name lfingers
    direction 0 0 0
    length 0
    axis 0 0 0 xyz
    dof rz ry rx
    limits( -inf , inf )
( -inf , inf )
( -inf , inf )

  end
  begin
    id 29
    name lowerneck
    direction -0.030798 0.998024 0.0547665
    length 3.93918
    axis 0 -0 0 xyz
    dof rx ry rz
    limits( -inf , inf )
( -inf , inf )
( -inf , inf )

  end
  begin
    id 30
    name upperneck
    direction 0.0531588 0.996611 -0.0627736
    length 3.95491
    axis 0 -0 0 xyz
    dof rx ry rz
    limits( -inf , inf )
( -inf , inf )
( -inf , inf )

  end
  begin
    id 31
    name head
    direction 0 0 0
    length 0
    axis 0 0 0 xyz
    dof rx ry rz
    limits( -inf , inf )
( -inf , inf )
( -inf , inf )

  end
:hierarchy
  begin
    root lfemurDummy rfemurDummy lowerbackDummy
    lfemurDummy lfemur
    lfemur ltibia
    ltibia lfoot
    lfoot ltoes
    rfemurDummy rfemur
    rfemur rtibia
    rtibia rfoot
    rfoot rtoes
    lowerbackDummy lowerback
    lowerback upperback
    upperback thorax
    thorax rclavicle lclavicle lowerneck
    rclavicle rhumerus
    rhumerus rradius
    rradius rwrist
    rwrist rthumb rhand
    rhand rfingers
    lclavicle lhumerus
    lhumerus lradius
    lradius lwrist
    lwrist lthumb lhand
    lhand lfingers
    lowerneck upperneck
    upperneck head
  end

:SAMPLES-PER-SECOND 30
:FULLY-SPECIFIED
:DEGREES
19
root  13.70042215 36.80422325 0.4619644383 -14.86599731 -55.63899994 15.81799316
lowerback  24.89800072 3.257339954 4.301310062
upperback  7.968770027 5.070469856 3.417680025
thorax  -4.92881012 2.301340103 -0.1526930034
lowerneck  -6.882589817 5.777639866 -0.3094829917
upperneck  8.691610336 7.495079994 2.670550108
head  3.944410086 3.807810068 1.352180004
lclavicle  0 -9.442270133e-015 7.951389973e-016
lhumerus  -1.692090034 -5.065539837 78.99359894
lradius  2.524358123e-031 -2.469101072e-031 135.6340027
lwrist  0 -0 14.98630047
lhand  -1.496451383e-031 -27.76390076 20.11240005
lfingers  90 7.125020027 -90
lthumb  89.89689403 5.08795885 91.16245106
rclavicle  0 -9.442270133e-015 7.951389973e-016
rhumerus  34.63669968 27.99880028 -61.28639984
rradius  -3.266629387e-032 3.515982844e-031 95.30799866
rwrist  7.062250077e-031 8.827812596e-031 -49.04600143
rhand  -7.920061211e-032 -33.2840004 9.303460121
rfingers  -90 -7.125020027 -90
rthumb  -92.93752616 -24.25625642 -97.11982154
rfemur  -26.30349922 10.32619953 -12.46700001
rtibia  -0 0 63.85039902
rfoot  -5.858490502e-032 -19.6480999 -0.8886920214
rtoes  5.373923086 19.29304026 -105.8922705
lfemur  -35.02220154 9.424599648 -8.067410469
ltibia  -0 0 71.20279694
lfoot  -0 -4.282949924 -12.93540001
ltoes  -4.250644065 -19.5611806 -102.515957
20
root  13.97973308 36.7304434 0.5800510955 -16.01300049 -56.40799713 16.90800476
lowerback  25.52389908 3.245170116 4.352149963
upperback  8.573840141 5.038660049 3.820189953
thorax  -4.60187006 2.271490097 0.2539550066
lowerneck  -6.138229847 5.919789791 0.2897459865
upperneck  8.941049576 7.603960037 2.771120071
head  3.90515995 3.880500078 1.264840007
lclavicle  0 -9.442270133e-015 7.951389973e-016
lhumerus  0.3905670047 -3.625439882 77.62129974
lradius  2.512694587e-031 -2.480969558e-031 135.3639984
lwrist  -7.062250077e-031 1.765562519e-031 17.05949974
lhand  -1.496451383e-031 -27.76390076 20.11240005
lfingers  90 7.125020027 -90
lthumb  89.89689403 5.08795885 91.16245106
rclavicle  0 -9.442270133e-015 7.951389973e-016
rhumerus  37.67139816 26.83270073 -60.11819839
rradius  -2.772452825e-032 3.520224295e-031 94.50319672
rwrist  7.062250077e-031 8.827812596e-031 -50.35210037
rhand  -7.920061211e-032 -33.2840004 9.303460121
rfingers  -90 -7.125020027 -90
rthumb  -92.93752616 -24.25625642 -97.11982154
rfemur  -27.5121994 10.50599957 -13.63389969
rtibia  -0 0 64.96269989
rfoot  -4.68469138e-032 -19.57600021 -2.141160011
rtoes  5.373923086 19.29304026 -105.8922705
lfemur  -35.03860092 8.815560341 -8.40143013
ltibia  -0 0 71.30329895
lfoot  -0 -6.22217989 -10.54609966
ltoes  -4.250644065 -19.5611806 -102.515957
21
root  14.23695482 36.62377906 0.6756711194 -17.13900757 -57.03800201 18.04899597
lowerback  25.79929924 3.081290007 4.565619946
upperback  9.327389717 4.792339802 3.894200087
thorax  -3.892349958 2.152230024 0.2978169918
lowerneck  -5.408120155 6.098909855 1.093279958
upperneck  9.012550354 7.7146101 3.243779898
head  3.800590038 3.974699974 1.259610057
lclavicle  0 -9.442270133e-015 7.951389973e-016
lhumerus  2.980799913 -2.040509939 75.5951004
lradius  2.499713582e-031 -2.494048124e-031 135.0650024
lwrist  -7.062250077e-031 -8.827812596e-032 18.92980003
lhand  -1.496451383e-031 -27.76390076 20.11240005
lfingers  90 7.125020027 -90
lthumb  89.89689403 5.08795885 91.16245106
rclavicle  0 -9.442270133e-015 7.951389973e-016
rhumerus  40.9015007 25.41250038 -59.66379929
rradius  -2.268570037e-032 3.523830293e-031 93.6835022
rwrist  7.062250077e-031 3.531125038e-031 -51.61880112
rhand  -7.920061211e-032 -33.2840004 9.303460121
rfingers  -90 -7.125020027 -90
rthumb  -92.93752616 -24.25625642 -97.11982154
rfemur  -28.73999977 10.79870033 -14.8906002
rtibia  -0 0 66.24030304
rfoot  -4.695292823e-032 -19.93659973 -2.786429882
rtoes  5.373923086 19.29304026 -105.8922705
lfemur  -35.17050171 8.088589668 -8.683520317
ltibia  -0 0 71.40869904
lfoot  -0 -7.439350128 -8.101670265
ltoes  -4.250644065 -19.5611806 -102.515957
22
root  14.48266638 36.48777759 0.7657511028 -18.28199768 -57.44599915 19.16299438
lowerback  26.55489922 3.316109896 3.661469936
upperback  9.670780182 4.915860176 4.958509922
thorax  -4.053619862 2.15854001 1.906290054
lowerneck  -4.205709934 6.062570095 0.8417189717
upperneck  9.504879951 7.647610188 3.630680084
head  3.713049889 3.941499949 1.388890028
lclavicle  0 -9.442270133e-015 7.951389973e-016
lhumerus  4.706200123 -0.4019919932 75.24199677
lradius  2.485307434e-031 -2.508404073e-031 134.7350006
lwrist  -7.062250077e-031 -0 19.98609924
lhand  -1.496451383e-031 -27.76390076 20.11240005
lfingers  90 7.125020027 -90
lthumb  89.89689403 5.08795885 91.16245106
rclavicle  0 -9.442270133e-015 7.951389973e-016
rhumerus  43.5483017 24.50130081 -58.16759872
rradius  -1.82755174e-032 3.526392574e-031 92.96669769
rwrist  7.062250077e-031 3.531125038e-031 -53.22779846
rhand  -7.920061211e-032 -33.2840004 9.303460121
rfingers  -90 -7.125020027 -90
rthumb  -92.93752616 -24.25625642 -97.11982154
rfemur  -29.85009956 11.00650024 -16.13909912
rtibia  -0 0 67.69080353
rfoot  -4.689654298e-032 -19.74580002 -2.121589899
rtoes  5.373923086 19.29304026 -105.8922705
lfemur  -35.25080109 7.087600231 -9.015399933
ltibia  -0 0 71.53579712
lfoot  4.465537861e-032 -8.721229553 -5.854380131
ltoes  -4.250644065 -19.5611806 -102.515957
